<?xml version="1.0" standalone="no"?><!DOCTYPE svg PUBLIC "-//W3C//DTD SVG 1.1//EN" "http://www.w3.org/Graphics/SVG/1.1/DTD/svg11.dtd"><svg class="icon" width="48px" height="46.33px" viewBox="0 0 1061 1024" version="1.1" xmlns="http://www.w3.org/2000/svg"><path fill="#ffffff" d="M946.03591108 77.4727111a31.776 31.776 0 0 0-33.3888 3.34186667c-34.31786667 26.48-91.55093333 41.65013333-157.0688 41.65013333-64.42346667 0-114.912-13.63946667-158.88-42.944C543.51324442 44.12977777 480.33777775 11.37777777 378.97031108 11.37777777 277.96977775 11.37777777 195.10471108 47.34364444 157.80871108 82.99164444A31.776 31.776 0 0 0 148.00711108 105.9175111v848.544a31.71733333 31.71733333 0 1 0 63.42186667 0V637.76817777c31.57653333-23.53706667 92.97493333-46.0864 167.54346667-46.0864 79.97013333 0 130.848 22.9728 182.6304 57.51466667C615.74044442 685.23377777 679.29244442 702.76977777 755.67217775 702.76977777c80.336 0 149.89013333-19.48906667 195.77706667-54.85546667a31.66933333 31.66933333 0 0 0 12.39253333-25.11466666V105.92924444a31.69386667 31.69386667 0 0 0-17.65333333-28.45653334z m-45.71093333 528.67413334c-34.93013333 21.184-86.59626667 33.2-144.75733333 33.2-64.42453333 0-114.91306667-13.664-158.88213334-42.93333334-53.13706667-35.38986667-116.27733333-68.1664-217.83146666-68.1664-66.21226667 0-124.6336 15.488-167.54346667 36.17813334V120.66417777c31.61173333-23.3728 93.21066667-45.89866667 167.54346667-45.89866667 79.84 0 130.752 23.008 182.6304 57.5264 54.1376 36.03733333 117.6896 53.56053333 194.0704 53.56053334 54.56106667 0 104.1792-8.9792 144.7584-25.80906667z m0 0" /></svg>